<svg xmlns="http://www.w3.org/2000/svg" xmlns:xlink="http://www.w3.org/1999/xlink" xmlns:lucid="lucid" width="1913" height="1201"><g transform="translate(-129 -65)" lucid:page-tab-id="0_0"><path d="M0 0h2000v1500H0z" fill="#fff"/><path d="M260 166a6 6 0 0 1 6-6h588a6 6 0 0 1 6 6v1028a6 6 0 0 1-6 6H266a6 6 0 0 1-6-6z" stroke="#dd344c" stroke-width="3" fill="#fff" fill-opacity="0"/><use xlink:href="#a" transform="matrix(1,0,0,1,275,180) translate(0 21.52777777777778)"/><use xlink:href="#b" transform="matrix(1,0,0,1,275,180) translate(87.68446180555556 21.52777777777778)"/><path d="M300 246a6 6 0 0 1 6-6h508a6 6 0 0 1 6 6v388a6 6 0 0 1-6 6H306a6 6 0 0 1-6-6z" fill="#e3fae3"/><path d="M324.14 240h12.1m12.1 0h12.1m12.08 0h12.1m12.1 0h12.1m12.08 0H433m12.1 0h12.1m12.1 0h12.08m12.1 0h12.1m12.1 0h12.08m12.1 0h12.1m12.1 0h12.08m12.1 0h12.1m12.1 0h12.08m12.1 0h12.1m12.1 0h12.08m12.1 0h12.1m12.1 0h12.1m12.08 0h12.1m12.1 0h12.1m12.08 0h12.1m12.1 0H814a6 6 0 0 1 6 6v6.06m0 12.13v12.1m0 12.14v12.12m0 12.13v12.1m0 12.14v12.12m0 12.13v12.1m0 12.14v12.12m0 12.13v12.1m0 12.14v12.12m0 12.13v12.1m0 12.14v12.12m0 12.13v12.1m0 12.14v12.12m0 12.13v12.1m0 12.14v12.12m0 12.13v12.1m0 12.14V634a6 6 0 0 1-6 6h-6.05m-12.1 0h-12.1m-12.08 0h-12.1m-12.1 0h-12.1m-12.08 0h-12.1m-12.1 0H687m-12.1 0h-12.1m-12.1 0h-12.08m-12.1 0h-12.1m-12.1 0h-12.08m-12.1 0h-12.1m-12.1 0h-12.08m-12.1 0h-12.1m-12.1 0H493.5m-12.1 0h-12.1m-12.1 0H445.1m-12.1 0h-12.1m-12.1 0h-12.1m-12.08 0h-12.1m-12.1 0h-12.1m-12.08 0h-12.1m-12.1 0H306a6 6 0 0 1-6-6v-6.06m0-12.13v-12.1m0-12.14v-12.12m0-12.13v-12.1m0-12.14v-12.12m0-12.13v-12.1m0-12.14v-12.12m0-12.13v-12.1m0-12.14v-12.12m0-12.13v-12.1m0-12.14v-12.12m0-12.13v-12.1m0-12.14v-12.12m0-12.13v-12.1m0-12.14v-12.12m0-12.13v-12.1m0-12.14V246a6 6 0 0 1 6-6h6.05" stroke="#00a4a6" stroke-width="3" fill="none"/><use xlink:href="#c" transform="matrix(1,0,0,1,300,260) translate(197.78754340277777 21.52777777777778)"/><use xlink:href="#d" transform="matrix(1,0,0,1,300,260) translate(257.35785590277777 21.52777777777778)"/><path d="M300 686a6 6 0 0 1 6-6h508a6 6 0 0 1 6 6v488a6 6 0 0 1-6 6H306a6 6 0 0 1-6-6z" fill="#ffdda6"/><path d="M324.14 680h12.1m12.1 0h12.1m12.08 0h12.1m12.1 0h12.1m12.08 0H433m12.1 0h12.1m12.1 0h12.08m12.1 0h12.1m12.1 0h12.08m12.1 0h12.1m12.1 0h12.08m12.1 0h12.1m12.1 0h12.08m12.1 0h12.1m12.1 0h12.08m12.1 0h12.1m12.1 0h12.1m12.08 0h12.1m12.1 0h12.1m12.08 0h12.1m12.1 0H814a6 6 0 0 1 6 6v6.1m0 12.2v12.2m0 12.2v12.2m0 12.2v12.2m0 12.2v12.2m0 12.2v12.2m0 12.2v12.2m0 12.2v12.2m0 12.2v12.2m0 12.2v12.2m0 12.2v12.2m0 12.2v12.2m0 12.2v12.2m0 12.2v12.2m0 12.2v12.2m0 12.2v12.2m0 12.2v12.2m0 12.2v12.2m0 12.2v12.2m0 12.2v12.2m0 12.2v6.1a6 6 0 0 1-6 6h-6.05m-12.1 0h-12.1m-12.08 0h-12.1m-12.1 0h-12.1m-12.08 0h-12.1m-12.1 0H687m-12.1 0h-12.1m-12.1 0h-12.08m-12.1 0h-12.1m-12.1 0h-12.08m-12.1 0h-12.1m-12.1 0h-12.08m-12.1 0h-12.1m-12.1 0H493.5m-12.1 0h-12.1m-12.1 0H445.1m-12.1 0h-12.1m-12.1 0h-12.1m-12.08 0h-12.1m-12.1 0h-12.1m-12.08 0h-12.1m-12.1 0H306a6 6 0 0 1-6-6v-6.1m0-12.2v-12.2m0-12.2v-12.2m0-12.2v-12.2m0-12.2v-12.2m0-12.2v-12.2m0-12.2v-12.2m0-12.2v-12.2m0-12.2v-12.2m0-12.2v-12.2m0-12.2v-12.2m0-12.2v-12.2m0-12.2v-12.2m0-12.2v-12.2m0-12.2v-12.2m0-12.2v-12.2m0-12.2v-12.2m0-12.2v-12.2m0-12.2v-12.2m0-12.2v-12.2m0-12.2V686a6 6 0 0 1 6-6h6.05" stroke="#00a4a6" stroke-width="3" fill="none"/><use xlink:href="#c" transform="matrix(1,0,0,1,300,700) translate(172.90690104166669 21.52777777777778)"/><use xlink:href="#e" transform="matrix(1,0,0,1,300,700) translate(232.47721354166669 21.52777777777778)"/><path d="M1320 346a6 6 0 0 1 6-6h588a6 6 0 0 1 6 6v628a6 6 0 0 1-6 6h-588a6 6 0 0 1-6-6z" stroke="#dd344c" stroke-width="3" fill="#fff" fill-opacity="0"/><use xlink:href="#f" transform="matrix(1,0,0,1,1335,360) translate(0 21.52777777777778)"/><use xlink:href="#g" transform="matrix(1,0,0,1,1335,360) translate(73.29644097222221 21.52777777777778)"/><path d="M1360 426a6 6 0 0 1 6-6h508a6 6 0 0 1 6 6v208a6 6 0 0 1-6 6h-508a6 6 0 0 1-6-6z" fill="#e3fae3"/><path d="M1384.14 420h12.1m12.1 0h12.1m12.08 0h12.1m12.1 0h12.1m12.1 0h12.08m12.1 0h12.1m12.1 0h12.08m12.1 0h12.1m12.1 0h12.08m12.1 0h12.1m12.1 0h12.08m12.1 0h12.1m12.1 0h12.08m12.1 0h12.1m12.1 0h12.1m12.08 0h12.1m12.1 0h12.1m12.08 0h12.1m12.1 0h12.1m12.08 0h12.1m12.1 0h6.04a6 6 0 0 1 6 6v5.78m0 11.55v11.56m0 11.54V478m0 11.56v11.55m0 11.57v11.55m0 11.56v11.55m0 11.56v11.54m0 11.56v11.56m0 11.55v11.57m0 11.55V634a6 6 0 0 1-6 6h-6.05m-12.1 0h-12.1m-12.08 0h-12.1m-12.1 0h-12.1m-12.08 0h-12.1m-12.1 0H1747m-12.1 0h-12.1m-12.1 0h-12.08m-12.1 0h-12.1m-12.1 0h-12.08m-12.1 0h-12.1m-12.1 0h-12.08m-12.1 0h-12.1m-12.1 0h-12.08m-12.1 0h-12.1m-12.1 0h-12.1m-12.08 0h-12.1m-12.1 0h-12.1m-12.08 0h-12.1m-12.1 0h-12.1m-12.08 0h-12.1m-12.1 0H1366a6 6 0 0 1-6-6v-5.78m0-11.55V605.1m0-11.54V582m0-11.56V558.9m0-11.57v-11.55m0-11.56v-11.55m0-11.56v-11.54m0-11.56v-11.56m0-11.55v-11.57m0-11.55V426a6 6 0 0 1 6-6h6.05" stroke="#00a4a6" stroke-width="3" fill="none"/><use xlink:href="#c" transform="matrix(1,0,0,1,1360,440) translate(197.78754340277777 21.52777777777778)"/><use xlink:href="#d" transform="matrix(1,0,0,1,1360,440) translate(257.35785590277777 21.52777777777778)"/><path d="M1360 706a6 6 0 0 1 6-6h508a6 6 0 0 1 6 6v248a6 6 0 0 1-6 6h-508a6 6 0 0 1-6-6z" fill="#fff3d9"/><path d="M1384.14 700h12.1m12.1 0h12.1m12.08 0h12.1m12.1 0h12.1m12.1 0h12.08m12.1 0h12.1m12.1 0h12.08m12.1 0h12.1m12.1 0h12.08m12.1 0h12.1m12.1 0h12.08m12.1 0h12.1m12.1 0h12.08m12.1 0h12.1m12.1 0h12.1m12.08 0h12.1m12.1 0h12.1m12.08 0h12.1m12.1 0h12.1m12.08 0h12.1m12.1 0h6.04a6 6 0 0 1 6 6v6.2m0 12.4V737m0 12.4v12.4m0 12.4v12.4m0 12.4v12.4m0 12.4v12.4m0 12.4V861m0 12.4v12.4m0 12.4v12.4m0 12.4v12.4m0 12.4v6.2a6 6 0 0 1-6 6h-6.05m-12.1 0h-12.1m-12.08 0h-12.1m-12.1 0h-12.1m-12.08 0h-12.1m-12.1 0H1747m-12.1 0h-12.1m-12.1 0h-12.08m-12.1 0h-12.1m-12.1 0h-12.08m-12.1 0h-12.1m-12.1 0h-12.08m-12.1 0h-12.1m-12.1 0h-12.08m-12.1 0h-12.1m-12.1 0h-12.1m-12.08 0h-12.1m-12.1 0h-12.1m-12.08 0h-12.1m-12.1 0h-12.1m-12.08 0h-12.1m-12.1 0H1366a6 6 0 0 1-6-6v-6.2m0-12.4V923m0-12.4v-12.4m0-12.4v-12.4m0-12.4v-12.4m0-12.4v-12.4m0-12.4V799m0-12.4v-12.4m0-12.4v-12.4m0-12.4v-12.4m0-12.4V706a6 6 0 0 1 6-6h6.05" stroke="#00a4a6" stroke-width="3" fill="none"/><use xlink:href="#c" transform="matrix(1,0,0,1,1360,720) translate(192.30251736111111 21.52777777777778)"/><use xlink:href="#h" transform="matrix(1,0,0,1,1360,720) translate(251.87282986111111 21.52777777777778)"/><path d="M340 306a6 6 0 0 1 6-6h428a6 6 0 0 1 6 6v48a6 6 0 0 1-6 6H346a6 6 0 0 1-6-6z" stroke="#000" stroke-width="2" fill="#fff"/><use xlink:href="#i" transform="matrix(1,0,0,1,345,305) translate(118.97764756944446 34.02777777777778)"/><use xlink:href="#j" transform="matrix(1,0,0,1,345,305) translate(217.90342881944446 34.02777777777778)"/><path d="M340 486a6 6 0 0 1 6-6h428a6 6 0 0 1 6 6v48a6 6 0 0 1-6 6H346a6 6 0 0 1-6-6z" stroke="#000" stroke-width="2" fill="#fff"/><use xlink:href="#k" transform="matrix(1,0,0,1,345,485) translate(92.6918402777778 34.02777777777778)"/><use xlink:href="#l" transform="matrix(1,0,0,1,345,485) translate(147.31423611111114 34.02777777777778)"/><use xlink:href="#m" transform="matrix(1,0,0,1,345,485) translate(260.0095486111111 34.02777777777778)"/><path d="M340 366a6 6 0 0 1 6-6h428a6 6 0 0 1 6 6v48a6 6 0 0 1-6 6H346a6 6 0 0 1-6-6z" stroke="#000" stroke-width="2" fill="#fff"/><use xlink:href="#n" transform="matrix(1,0,0,1,344.99999999999994,365) translate(76.01974826388891 34.02777777777778)"/><use xlink:href="#o" transform="matrix(1,0,0,1,344.99999999999994,365) translate(167.5453559027778 34.02777777777778)"/><use xlink:href="#p" transform="matrix(1,0,0,1,344.99999999999994,365) translate(288.41124131944446 34.02777777777778)"/><path d="M340 426a6 6 0 0 1 6-6h428a6 6 0 0 1 6 6v48a6 6 0 0 1-6 6H346a6 6 0 0 1-6-6z" stroke="#000" stroke-width="2" fill="#fff"/><use xlink:href="#n" transform="matrix(1,0,0,1,344.99999999999994,425) translate(95.41536458333333 34.02777777777778)"/><use xlink:href="#q" transform="matrix(1,0,0,1,344.99999999999994,425) translate(186.94097222222223 34.02777777777778)"/><use xlink:href="#p" transform="matrix(1,0,0,1,344.99999999999994,425) translate(269.015625 34.02777777777778)"/><path d="M340 746a6 6 0 0 1 6-6h428a6 6 0 0 1 6 6v188a6 6 0 0 1-6 6H346a6 6 0 0 1-6-6z" stroke="#000" stroke-width="2" fill="#fff"/><use xlink:href="#r" transform="matrix(1,0,0,1,345,745) translate(0 21.52777777777778)"/><use xlink:href="#s" transform="matrix(1,0,0,1,345,745) translate(0 53.79340277777778)"/><use xlink:href="#t" transform="matrix(1,0,0,1,345,745) translate(22.22222222222222 53.79340277777778)"/><use xlink:href="#u" transform="matrix(1,0,0,1,345,745) translate(69.04296875 53.79340277777778)"/><use xlink:href="#v" transform="matrix(1,0,0,1,345,745) translate(160.56857638888889 53.79340277777778)"/><use xlink:href="#w" transform="matrix(1,0,0,1,345,745) translate(22.22222222222222 86.05902777777777)"/><use xlink:href="#x" transform="matrix(1,0,0,1,345,745) translate(44.44444444444444 86.05902777777777)"/><use xlink:href="#y" transform="matrix(1,0,0,1,345,745) translate(166.43880208333334 86.05902777777777)"/><use xlink:href="#z" transform="matrix(1,0,0,1,345,745) translate(228.80859375 86.05902777777777)"/><use xlink:href="#A" transform="matrix(1,0,0,1,345,745) translate(22.22222222222222 118.32465277777777)"/><use xlink:href="#x" transform="matrix(1,0,0,1,345,745) translate(44.44444444444444 118.32465277777777)"/><use xlink:href="#B" transform="matrix(1,0,0,1,345,745) translate(166.43880208333334 118.32465277777777)"/><use xlink:href="#C" transform="matrix(1,0,0,1,345,745) translate(229.55729166666669 118.32465277777777)"/><use xlink:href="#D" transform="matrix(1,0,0,1,345,745) translate(328.4830729166667 118.32465277777777)"/><use xlink:href="#E" transform="matrix(1,0,0,1,345,745) translate(44.44444444444444 150.59027777777777)"/><use xlink:href="#F" transform="matrix(1,0,0,1,345,745) translate(168.50043402777774 150.59027777777777)"/><use xlink:href="#G" transform="matrix(1,0,0,1,345,745) translate(182.75824652777774 150.59027777777777)"/><use xlink:href="#H" transform="matrix(1,0,0,1,345,745) translate(262.82552083333326 150.59027777777777)"/><path d="M340 546a6 6 0 0 1 6-6h428a6 6 0 0 1 6 6v48a6 6 0 0 1-6 6H346a6 6 0 0 1-6-6z" stroke="#000" stroke-width="2" fill="#fff"/><g><use xlink:href="#i" transform="matrix(1,0,0,1,345,545) translate(80.34375000000003 34.02777777777778)"/><use xlink:href="#I" transform="matrix(1,0,0,1,345,545) translate(179.26953125 34.02777777777778)"/><use xlink:href="#J" transform="matrix(1,0,0,1,345,545) translate(232.85026041666669 34.02777777777778)"/></g><path d="M340 946a6 6 0 0 1 6-6h428a6 6 0 0 1 6 6v188a6 6 0 0 1-6 6H346a6 6 0 0 1-6-6z" stroke="#000" stroke-width="2" fill="#fff"/><g><use xlink:href="#r" transform="matrix(1,0,0,1,345,945) translate(0 21.52777777777778)"/><use xlink:href="#s" transform="matrix(1,0,0,1,345,945) translate(0 53.79340277777778)"/><use xlink:href="#t" transform="matrix(1,0,0,1,345,945) translate(22.22222222222222 53.79340277777778)"/><use xlink:href="#u" transform="matrix(1,0,0,1,345,945) translate(69.04296875 53.79340277777778)"/><use xlink:href="#K" transform="matrix(1,0,0,1,345,945) translate(160.56857638888889 53.79340277777778)"/><use xlink:href="#w" transform="matrix(1,0,0,1,345,945) translate(22.22222222222222 86.05902777777777)"/><use xlink:href="#L" transform="matrix(1,0,0,1,345,945) translate(44.44444444444444 86.05902777777777)"/><use xlink:href="#M" transform="matrix(1,0,0,1,345,945) translate(132.31336805555557 86.05902777777777)"/><use xlink:href="#N" transform="matrix(1,0,0,1,345,945) translate(212.31553819444446 86.05902777777777)"/><use xlink:href="#A" transform="matrix(1,0,0,1,345,945) translate(22.22222222222222 118.32465277777777)"/><use xlink:href="#O" transform="matrix(1,0,0,1,345,945) translate(44.44444444444444 118.32465277777777)"/><use xlink:href="#P" transform="matrix(1,0,0,1,345,945) translate(154.43793402777777 118.32465277777777)"/><use xlink:href="#Q" transform="matrix(1,0,0,1,345,945) translate(22.22222222222222 150.59027777777777)"/><use xlink:href="#O" transform="matrix(1,0,0,1,345,945) translate(44.44444444444444 150.59027777777777)"/><use xlink:href="#R" transform="matrix(1,0,0,1,345,945) translate(154.43793402777777 150.59027777777777)"/></g><path d="M1090 240c-33.12 0-60 26.88-60 60 0 33.24 26.88 60 60 60 33.24 0 60-26.88 60-60 0-33.24-26.76-60-60-60zm15.84 112.08V342c0-4.08-2.28-7.56-5.4-9.84h.6c5.76-.6 10.68-2.4 10.68-2.4s7.32-2.28 11.4-6.96c4.2-5.16 5.4-12.36 5.4-12.36s1.2-7.92 0-14.28c-1.2-5.88-6-10.32-6-10.32s1.56-4.2 1.32-8.28c0-4.08-1.92-8.16-1.92-8.16s-3.48-.36-7.32 1.2c-4.44 1.92-9.48 5.4-9.48 5.4s-3.48-1.2-7.56-1.56c-3.72-.72-8.16-.72-8.16-.72s-4.44 0-8.28.72c-4.08.6-7.56 1.56-7.56 1.56s-5.04-3.48-9.48-5.4c-3.72-1.56-7.2-1.2-7.2-1.2s-1.92 4.08-1.92 8.16c0 4.2 1.2 8.28 1.2 8.28s-4.32 4.08-5.88 10.32c-1.68 6.36 0 14.28 0 14.28s.84 7.2 5.28 12.36c4.2 4.68 11.4 6.96 11.4 6.96s5.04 1.8 10.68 2.4h.96c-2.16 2.28-4.44 5.76-4.44 9.84v10.08c-22.32-6.6-38.52-27.48-38.52-52.08 0-30 24.36-54.24 54.36-54.24s54.72 24.24 54.72 54.24c0 24.6-16.44 45.48-38.88 52.08z" stroke="#000" stroke-opacity="0" fill="#0078d7"/><g><use xlink:href="#S" transform="matrix(1,0,0,1,1000,369) translate(53.753255208333336 21.52777777777778)"/></g><path d="M842 440h77.75a6 6 0 0 0 6-6V306.12a6 6 0 0 1 6-6h95.76" stroke="#3a414a" stroke-width="5" fill="none"/><path d="M826.5 440l13-7.5v15z" stroke="#3a414a" stroke-width="5" fill="#3a414a"/><path d="M1030 300l.1 2.6h-2.66v-4.96h2.64z" stroke="#3a414a" stroke-width=".05" fill="#3a414a"/><path d="M782 983.32h302a6 6 0 0 0 6-6V576a6 6 0 0 1 6-6h287" stroke="#3a414a" stroke-width="2" fill="none"/><path d="M782.03 984.3H781v-1.96h1.03z" stroke="#3a414a" stroke-width=".05" fill="#3a414a"/><path d="M1397 570l-13 7.5v-15z" stroke="#3a414a" stroke-width="2" fill="#3a414a"/><path d="M1152.46 299.04h95.77a6 6 0 0 1 6 6v165.48a6 6 0 0 0 6 6H1338" stroke="#3a414a" stroke-width="5" fill="none"/><path d="M1152.52 301.52h-2.57l.05-1.52-.14-3.43h2.66z" stroke="#3a414a" stroke-width=".05" fill="#3a414a"/><path d="M1353.5 476.52l-13 7.5v-15z" stroke="#3a414a" stroke-width="5" fill="#3a414a"/><path d="M1400 486a6 6 0 0 1 6-6h428a6 6 0 0 1 6 6v48a6 6 0 0 1-6 6h-428a6 6 0 0 1-6-6z" stroke="#000" stroke-width="2" fill="#fff"/><g><use xlink:href="#T" transform="matrix(1,0,0,1,1405,485) translate(126.84982638888889 34.02777777777778)"/><use xlink:href="#U" transform="matrix(1,0,0,1,1405,485) translate(192.2578125 34.02777777777778)"/><use xlink:href="#V" transform="matrix(1,0,0,1,1405,485) translate(222.71571180555554 34.02777777777778)"/></g><path d="M1400 546a6 6 0 0 1 6-6h428a6 6 0 0 1 6 6v48a6 6 0 0 1-6 6h-428a6 6 0 0 1-6-6z" stroke="#000" stroke-width="2" fill="#fff"/><g><use xlink:href="#W" transform="matrix(1,0,0,1,1405,545) translate(11.1976996527778 34.02777777777778)"/><use xlink:href="#X" transform="matrix(1,0,0,1,1405,545) translate(65.76584201388891 34.02777777777778)"/><use xlink:href="#Y" transform="matrix(1,0,0,1,1405,545) translate(274.0666232638889 34.02777777777778)"/><use xlink:href="#Z" transform="matrix(1,0,0,1,1405,545) translate(305.978515625 34.02777777777778)"/><use xlink:href="#h" transform="matrix(1,0,0,1,1405,545) translate(343.97764756944446 34.02777777777778)"/></g><path d="M782 1040h391.96a6 6 0 0 0 6-6V896.34a6 6 0 0 1 6-6h194.54" stroke="#3a414a" stroke-width="2" fill="none"/><path d="M782.03 1040.97H781v-1.94h1.03z" stroke="#3a414a" stroke-width=".05" fill="#3a414a"/><path d="M1395.76 890.34l-14.26 4.63v-9.27z" stroke="#3a414a" stroke-width="2" fill="#3a414a"/><path d="M1400 766a6 6 0 0 1 6-6h428a6 6 0 0 1 6 6v148a6 6 0 0 1-6 6h-428a6 6 0 0 1-6-6z" stroke="#000" stroke-width="2" fill="#fff"/><g><use xlink:href="#r" transform="matrix(1,0,0,1,1405,765) translate(0 21.52777777777778)"/><use xlink:href="#s" transform="matrix(1,0,0,1,1405,765) translate(0 53.79340277777778)"/><use xlink:href="#aa" transform="matrix(1,0,0,1,1405,765) translate(22.22222222222222 53.79340277777778)"/><use xlink:href="#ab" transform="matrix(1,0,0,1,1405,765) translate(149.34895833333334 53.79340277777778)"/><use xlink:href="#ac" transform="matrix(1,0,0,1,1405,765) translate(189.02994791666669 53.79340277777778)"/><use xlink:href="#ad" transform="matrix(1,0,0,1,1405,765) translate(229.25347222222223 53.79340277777778)"/><use xlink:href="#ae" transform="matrix(1,0,0,1,1405,765) translate(284.9826388888889 53.79340277777778)"/><use xlink:href="#af" transform="matrix(1,0,0,1,1405,765) translate(0 86.05902777777777)"/><use xlink:href="#k" transform="matrix(1,0,0,1,1405,765) translate(22.22222222222222 86.05902777777777)"/><use xlink:href="#ag" transform="matrix(1,0,0,1,1405,765) translate(76.84461805555554 86.05902777777777)"/><use xlink:href="#ah" transform="matrix(1,0,0,1,1405,765) translate(0 118.32465277777777)"/><use xlink:href="#ai" transform="matrix(1,0,0,1,1405,765) translate(22.22222222222222 118.32465277777777)"/><use xlink:href="#aj" transform="matrix(1,0,0,1,1405,765) translate(73.02517361111111 118.32465277777777)"/><use xlink:href="#ak" transform="matrix(1,0,0,1,1405,765) translate(114.76779513888889 118.32465277777777)"/><use xlink:href="#al" transform="matrix(1,0,0,1,1405,765) translate(172.63454861111111 118.32465277777777)"/><use xlink:href="#am" transform="matrix(1,0,0,1,1405,765) translate(230.078125 118.32465277777777)"/><use xlink:href="#an" transform="matrix(1,0,0,1,1405,765) translate(256.7057291666667 118.32465277777777)"/></g><path d="M1398 840H797" stroke="#3a414a" stroke-width="2" fill="none"/><path d="M1399 840.98h-1.03V839h1.03z" stroke="#3a414a" stroke-width=".05" fill="#3a414a"/><path d="M783 840l13-7.5v15z" stroke="#3a414a" stroke-width="2" fill="#3a414a"/><path d="M1398.5 890.34h-35.15" stroke="#3a414a" fill="none"/><path d="M1399 890.8h-.5v-.94h.5z" stroke="#3a414a" stroke-width=".05" fill="#3a414a"/><path d="M1363.36 890.34h-.5" stroke="#3a414a" fill="none"/><defs><path d="M180 0v-1490h510c348 0 508 209 508 474 0 266-160 477-507 477H370V0H180zm190-706h312c236 0 327-133 327-310 0-176-91-307-329-307H370v617" id="ao"/><path d="M158 0v-1118h174v172h12c41-113 157-188 290-188 26 0 70 2 91 3v181c-11-2-60-10-108-10-161 0-279 109-279 260V0H158" id="ap"/><path d="M158 0v-1118h180V0H158zm91-1301c-68 0-125-53-125-119s57-119 125-119c69 0 126 53 126 119s-57 119-126 119" id="aq"/><path d="M158 0v-1118h175l1 205c55-151 181-225 313-225 147 0 245 90 285 228 53-141 190-228 352-228 194 0 352 125 352 384V0h-181v-749c0-161-105-225-225-225-151 0-243 103-243 244V0H807v-767c0-124-93-207-219-207-131 0-250 92-250 270V0H158" id="ar"/><path d="M471 26C259 26 90-98 90-318c0-256 228-303 435-329 202-27 287-16 287-108 0-139-79-219-234-219-161 0-248 86-283 164l-173-57c86-203 278-265 451-265 150 0 419 46 419 395V0H815v-152h-12C765-73 660 26 471 26zm31-159c199 0 310-134 310-271v-155c-30 35-226 55-295 64-131 17-246 59-246 186 0 116 97 176 231 176" id="as"/><path d="M140 405l46-156c120 36 205 19 263-150l32-93L54-1118h197c107 313 237 620 324 950 87-331 219-637 326-950h196L606 167c-68 178-176 259-334 259-64 0-113-12-132-21" id="at"/><g id="a"><use transform="matrix(0.010850694444444444,0,0,0.010850694444444444,0,0)" xlink:href="#ao"/><use transform="matrix(0.010850694444444444,0,0,0.010850694444444444,14.192708333333332,0)" xlink:href="#ap"/><use transform="matrix(0.010850694444444444,0,0,0.010850694444444444,22.90581597222222,0)" xlink:href="#aq"/><use transform="matrix(0.010850694444444444,0,0,0.010850694444444444,28.287760416666664,0)" xlink:href="#ar"/><use transform="matrix(0.010850694444444444,0,0,0.010850694444444444,47.75390625,0)" xlink:href="#as"/><use transform="matrix(0.010850694444444444,0,0,0.010850694444444444,60.23220486111112,0)" xlink:href="#ap"/><use transform="matrix(0.010850694444444444,0,0,0.010850694444444444,68.9453125,0)" xlink:href="#at"/></g><path d="M645 0H180v-1490h484c435 0 692 280 692 742 0 466-257 748-711 748zM370-168h263c363 0 539-218 539-580 0-358-176-574-521-574H370v1154" id="au"/><path d="M628 24c-324 0-524-230-524-574 0-343 198-582 503-582 237 0 487 146 487 559v75H286c9 234 145 362 343 362 132 0 231-58 273-172l174 48C1024-91 857 24 628 24zM287-650h624c-17-190-120-322-304-322-192 0-309 151-320 322" id="av"/><path d="M538 24C308 24 148-78 108-271l171-41c32 123 123 178 257 178 156 0 256-77 256-169 0-77-54-128-164-154l-186-44c-203-48-300-148-300-305 0-192 176-326 414-326 230 0 351 112 402 269l-163 42c-31-80-94-158-238-158-133 0-233 69-233 162 0 83 57 129 188 160l169 40c203 48 298 149 298 302 0 196-179 339-441 339" id="aw"/><path d="M611 442c-248 0-391-105-460-228l146-94c47 65 117 165 314 165 178 0 307-82 307-266v-224h-17C863-141 792-18 576-18c-268 0-472-195-472-546 0-346 197-568 476-568 216 0 288 133 326 193h17v-179h175V29c0 289-215 413-487 413zm-5-620c203 0 314-146 314-390 0-237-108-403-314-403-213 0-319 180-319 403 0 230 109 390 319 390" id="ax"/><path d="M338-670V0H158v-1118h173l1 207c72-158 192-221 342-221 226 0 378 139 378 422V0H872v-695c0-172-96-275-252-275-161 0-282 109-282 300" id="ay"/><g id="b"><use transform="matrix(0.010850694444444444,0,0,0.010850694444444444,0,0)" xlink:href="#au"/><use transform="matrix(0.010850694444444444,0,0,0.010850694444444444,16.03732638888889,0)" xlink:href="#av"/><use transform="matrix(0.010850694444444444,0,0,0.010850694444444444,28.99305555555556,0)" xlink:href="#aw"/><use transform="matrix(0.010850694444444444,0,0,0.010850694444444444,40.72265625,0)" xlink:href="#aq"/><use transform="matrix(0.010850694444444444,0,0,0.010850694444444444,46.10460069444444,0)" xlink:href="#ax"/><use transform="matrix(0.010850694444444444,0,0,0.010850694444444444,59.733072916666664,0)" xlink:href="#ay"/><use transform="matrix(0.010850694444444444,0,0,0.010850694444444444,72.86241319444444,0)" xlink:href="#av"/><use transform="matrix(0.010850694444444444,0,0,0.010850694444444444,85.81814236111111,0)" xlink:href="#ap"/></g><path d="M657 26c-323 0-524-166-541-416h195c15 169 171 246 346 246 202 0 356-106 356-265 5-203-294-238-475-293-239-73-380-191-380-389 0-252 224-419 512-419 294 0 499 171 508 396H992c-17-145-151-228-328-228-193 0-321 102-321 242 0 156 175 211 284 241l149 41c160 44 422 134 422 412 0 244-197 432-541 432" id="az"/><g id="c"><use transform="matrix(0.010850694444444444,0,0,0.010850694444444444,0,0)" xlink:href="#az"/><use transform="matrix(0.010850694444444444,0,0,0.010850694444444444,14.2578125,0)" xlink:href="#as"/><use transform="matrix(0.010850694444444444,0,0,0.010850694444444444,26.73611111111111,0)" xlink:href="#ax"/><use transform="matrix(0.010850694444444444,0,0,0.010850694444444444,40.36458333333333,0)" xlink:href="#av"/></g><path d="M338-1490V0H158v-1490h180" id="aA"/><path d="M537 14c-226 0-379-139-379-422v-710h180v695c0 172 97 275 253 275 160 0 281-109 281-300v-670h181V0H879v-209C806-46 684 14 537 14" id="aB"/><g id="d"><use transform="matrix(0.010850694444444444,0,0,0.010850694444444444,0,0)" xlink:href="#ao"/><use transform="matrix(0.010850694444444444,0,0,0.010850694444444444,14.192708333333332,0)" xlink:href="#aA"/><use transform="matrix(0.010850694444444444,0,0,0.010850694444444444,19.57465277777778,0)" xlink:href="#aB"/><use transform="matrix(0.010850694444444444,0,0,0.010850694444444444,32.71484375,0)" xlink:href="#ax"/><use transform="matrix(0.010850694444444444,0,0,0.010850694444444444,46.34331597222222,0)" xlink:href="#aq"/><use transform="matrix(0.010850694444444444,0,0,0.010850694444444444,51.725260416666664,0)" xlink:href="#ay"/></g><path d="M338-670V0H158v-1490h180v566c73-149 190-208 336-208 226 0 379 139 379 422V0H872v-695c0-172-96-275-252-275-161 0-282 109-282 300" id="aC"/><path d="M677 24c-213 0-288-135-325-197h-20V0H158v-1490h180v551h14c37-59 106-193 324-193 279 0 474 222 474 576 0 356-194 580-473 580zm-27-161c209 0 317-186 317-421 0-232-105-413-317-413-206 0-314 166-314 413 0 249 111 421 314 421" id="aD"/><path d="M613 24c-304 0-509-231-509-576 0-350 205-580 509-580 305 0 511 230 511 580 0 345-206 576-511 576zm0-161c226 0 329-195 329-415 0-222-103-419-329-419-223 0-326 196-326 419 0 220 103 415 326 415" id="aE"/><path d="M577 24c-279 0-473-224-473-580 0-354 195-576 474-576 218 0 287 134 324 193h14v-551h180V0H922v-173h-20C865-111 790 24 577 24zm27-161c203 0 314-172 314-421 0-247-108-413-314-413-212 0-317 181-317 413 0 235 108 421 317 421" id="aF"/><g id="e"><use transform="matrix(0.010850694444444444,0,0,0.010850694444444444,0,0)" xlink:href="#au"/><use transform="matrix(0.010850694444444444,0,0,0.010850694444444444,16.03732638888889,0)" xlink:href="#as"/><use transform="matrix(0.010850694444444444,0,0,0.010850694444444444,28.515625,0)" xlink:href="#aw"/><use transform="matrix(0.010850694444444444,0,0,0.010850694444444444,40.24522569444444,0)" xlink:href="#aC"/><use transform="matrix(0.010850694444444444,0,0,0.010850694444444444,53.385416666666664,0)" xlink:href="#aD"/><use transform="matrix(0.010850694444444444,0,0,0.010850694444444444,66.9921875,0)" xlink:href="#aE"/><use transform="matrix(0.010850694444444444,0,0,0.010850694444444444,80.53385416666666,0)" xlink:href="#as"/><use transform="matrix(0.010850694444444444,0,0,0.010850694444444444,93.01215277777777,0)" xlink:href="#ap"/><use transform="matrix(0.010850694444444444,0,0,0.010850694444444444,101.00911458333333,0)" xlink:href="#aF"/></g><path d="M98-1322v-168h1126v168H757V0H567v-1322H98" id="aG"/><path d="M598-1118v154H368v674c0 100 37 144 132 144 23 0 62-6 92-12L629-6c-37 13-88 20-134 20-193 0-307-107-307-290v-688H20v-154h168v-266h180v266h230" id="aH"/><g id="f"><use transform="matrix(0.010850694444444444,0,0,0.010850694444444444,0,0)" xlink:href="#aG"/><use transform="matrix(0.010850694444444444,0,0,0.010850694444444444,12.71701388888889,0)" xlink:href="#as"/><use transform="matrix(0.010850694444444444,0,0,0.010850694444444444,25.1953125,0)" xlink:href="#ap"/><use transform="matrix(0.010850694444444444,0,0,0.010850694444444444,33.19227430555556,0)" xlink:href="#ax"/><use transform="matrix(0.010850694444444444,0,0,0.010850694444444444,46.82074652777778,0)" xlink:href="#av"/><use transform="matrix(0.010850694444444444,0,0,0.010850694444444444,59.77647569444444,0)" xlink:href="#aH"/></g><g id="g"><use transform="matrix(0.010850694444444444,0,0,0.010850694444444444,0,0)" xlink:href="#au"/><use transform="matrix(0.010850694444444444,0,0,0.010850694444444444,16.03732638888889,0)" xlink:href="#av"/><use transform="matrix(0.010850694444444444,0,0,0.010850694444444444,28.99305555555556,0)" xlink:href="#aw"/><use transform="matrix(0.010850694444444444,0,0,0.010850694444444444,40.72265625,0)" xlink:href="#aq"/><use transform="matrix(0.010850694444444444,0,0,0.010850694444444444,46.10460069444444,0)" xlink:href="#ax"/><use transform="matrix(0.010850694444444444,0,0,0.010850694444444444,59.733072916666664,0)" xlink:href="#ay"/><use transform="matrix(0.010850694444444444,0,0,0.010850694444444444,72.86241319444444,0)" xlink:href="#av"/><use transform="matrix(0.010850694444444444,0,0,0.010850694444444444,85.81814236111111,0)" xlink:href="#ap"/><use transform="matrix(0.010850694444444444,0,0,0.010850694444444444,94.1840277777778,0)" xlink:href="#aw"/></g><path d="M458 0L52-1490h194c108 439 233 855 324 1313 92-459 221-873 331-1313h216c110 438 234 854 330 1307 92-455 216-869 323-1307h196L1558 0h-221l-256-944c-26-95-50-200-73-331-22 122-44 223-73 331L680 0H458" id="aI"/><path d="M158 0v-1490h180v865h22l478-493h223L593-638 1096 0H865L456-523 338-412V0H158" id="aJ"/><g id="h"><use transform="matrix(0.010850694444444444,0,0,0.010850694444444444,0,0)" xlink:href="#aI"/><use transform="matrix(0.010850694444444444,0,0,0.010850694444444444,20.768229166666668,0)" xlink:href="#aE"/><use transform="matrix(0.010850694444444444,0,0,0.010850694444444444,34.09288194444444,0)" xlink:href="#ap"/><use transform="matrix(0.010850694444444444,0,0,0.010850694444444444,42.80598958333333,0)" xlink:href="#aJ"/><use transform="matrix(0.010850694444444444,0,0,0.010850694444444444,54.50303819444444,0)" xlink:href="#av"/><use transform="matrix(0.010850694444444444,0,0,0.010850694444444444,67.45876736111111,0)" xlink:href="#ap"/></g><g id="i"><use transform="matrix(0.010850694444444444,0,0,0.010850694444444444,0,0)" xlink:href="#az"/><use transform="matrix(0.010850694444444444,0,0,0.010850694444444444,14.2578125,0)" xlink:href="#aH"/><use transform="matrix(0.010850694444444444,0,0,0.010850694444444444,21.52777777777778,0)" xlink:href="#ap"/><use transform="matrix(0.010850694444444444,0,0,0.010850694444444444,29.524739583333336,0)" xlink:href="#av"/><use transform="matrix(0.010850694444444444,0,0,0.010850694444444444,42.69748263888889,0)" xlink:href="#as"/><use transform="matrix(0.010850694444444444,0,0,0.010850694444444444,55.17578125,0)" xlink:href="#ar"/><use transform="matrix(0.010850694444444444,0,0,0.010850694444444444,74.64192708333333,0)" xlink:href="#aA"/><use transform="matrix(0.010850694444444444,0,0,0.010850694444444444,80.02387152777777,0)" xlink:href="#aq"/><use transform="matrix(0.010850694444444444,0,0,0.010850694444444444,85.40581597222221,0)" xlink:href="#aH"/></g><path d="M180 0v-1490h528c311 0 458 177 458 395 0 191-114 278-244 313v14c139 9 302 137 302 371 0 225-148 397-499 397H180zm190-168h350c232 0 321-102 321-231 0-149-120-277-311-277H370v508zm0-668h328c160 0 286-101 286-255 0-129-87-231-280-231H370v486" id="aK"/><path d="M158 418v-1536h174v179h20c37-59 106-193 324-193 279 0 474 222 474 576 0 356-194 580-473 580-213 0-288-135-325-197h-14v591H158zm492-555c209 0 317-186 317-421 0-232-105-413-317-413-206 0-314 166-314 413 0 249 111 421 314 421" id="aL"/><g id="j"><use transform="matrix(0.010850694444444444,0,0,0.010850694444444444,0,0)" xlink:href="#aK"/><use transform="matrix(0.010850694444444444,0,0,0.010850694444444444,14.539930555555555,0)" xlink:href="#aA"/><use transform="matrix(0.010850694444444444,0,0,0.010850694444444444,19.921875,0)" xlink:href="#aB"/><use transform="matrix(0.010850694444444444,0,0,0.010850694444444444,33.06206597222222,0)" xlink:href="#av"/><use transform="matrix(0.010850694444444444,0,0,0.010850694444444444,46.017795138888886,0)" xlink:href="#aL"/><use transform="matrix(0.010850694444444444,0,0,0.010850694444444444,59.62456597222221,0)" xlink:href="#ap"/><use transform="matrix(0.010850694444444444,0,0,0.010850694444444444,68.3376736111111,0)" xlink:href="#aq"/><use transform="matrix(0.010850694444444444,0,0,0.010850694444444444,73.71961805555554,0)" xlink:href="#ay"/><use transform="matrix(0.010850694444444444,0,0,0.010850694444444444,86.84895833333331,0)" xlink:href="#aH"/></g><g id="k"><use transform="matrix(0.010850694444444444,0,0,0.010850694444444444,0,0)" xlink:href="#au"/><use transform="matrix(0.010850694444444444,0,0,0.010850694444444444,16.03732638888889,0)" xlink:href="#as"/><use transform="matrix(0.010850694444444444,0,0,0.010850694444444444,28.515625,0)" xlink:href="#aH"/><use transform="matrix(0.010850694444444444,0,0,0.010850694444444444,35.89409722222222,0)" xlink:href="#as"/></g><path d="M783 20c-382 0-661-292-661-764 0-473 279-766 661-766 302 0 548 182 601 489h-190c-42-204-217-313-411-313-268 0-476 208-476 590 0 381 209 588 476 588 195 0 369-110 411-313h190c-52 303-296 489-601 489" id="aM"/><path d="M613 24c-304 0-509-231-509-576 0-350 205-580 509-580 216 0 392 114 453 309l-173 49c-33-115-133-197-280-197-223 0-326 196-326 419 0 220 103 415 326 415 150 0 252-85 285-206l172 49C1010-95 832 24 613 24" id="aN"/><g id="l"><use transform="matrix(0.010850694444444444,0,0,0.010850694444444444,0,0)" xlink:href="#aM"/><use transform="matrix(0.010850694444444444,0,0,0.010850694444444444,16.23263888888889,0)" xlink:href="#aE"/><use transform="matrix(0.010850694444444444,0,0,0.010850694444444444,29.557291666666664,0)" xlink:href="#aA"/><use transform="matrix(0.010850694444444444,0,0,0.010850694444444444,34.93923611111111,0)" xlink:href="#aA"/><use transform="matrix(0.010850694444444444,0,0,0.010850694444444444,40.32118055555555,0)" xlink:href="#av"/><use transform="matrix(0.010850694444444444,0,0,0.010850694444444444,53.27690972222221,0)" xlink:href="#aN"/><use transform="matrix(0.010850694444444444,0,0,0.010850694444444444,65.97222222222221,0)" xlink:href="#aH"/><use transform="matrix(0.010850694444444444,0,0,0.010850694444444444,73.0251736111111,0)" xlink:href="#aE"/><use transform="matrix(0.010850694444444444,0,0,0.010850694444444444,86.34982638888887,0)" xlink:href="#ap"/><use transform="matrix(0.010850694444444444,0,0,0.010850694444444444,94.71571180555556,0)" xlink:href="#aw"/></g><path d="M180 0v-1490h270l367 940c28 72 75 218 110 339 35-117 81-264 110-339l362-940h271V0h-187c2-448-5-837 7-1287-157 497-311 829-483 1287H842C666-458 514-784 354-1284c12 438 5 843 7 1284H180" id="aO"/><g id="m"><use transform="matrix(0.010850694444444444,0,0,0.010850694444444444,0,0)" xlink:href="#aO"/><use transform="matrix(0.010850694444444444,0,0,0.010850694444444444,20.07378472222222,0)" xlink:href="#as"/><use transform="matrix(0.010850694444444444,0,0,0.010850694444444444,32.55208333333333,0)" xlink:href="#aN"/><use transform="matrix(0.010850694444444444,0,0,0.010850694444444444,45.24739583333333,0)" xlink:href="#ap"/><use transform="matrix(0.010850694444444444,0,0,0.010850694444444444,53.24435763888888,0)" xlink:href="#aE"/><use transform="matrix(0.010850694444444444,0,0,0.010850694444444444,66.56901041666666,0)" xlink:href="#aw"/></g><path d="M370-1490V0H180v-1490h190" id="aP"/><path d="M126 0v-134l627-806v-11H146v-167h839v143L376-178v11h629V0H126" id="aQ"/><g id="n"><use transform="matrix(0.010850694444444444,0,0,0.010850694444444444,0,0)" xlink:href="#aP"/><use transform="matrix(0.010850694444444444,0,0,0.010850694444444444,5.967881944444445,0)" xlink:href="#ay"/><use transform="matrix(0.010850694444444444,0,0,0.010850694444444444,19.09722222222222,0)" xlink:href="#aq"/><use transform="matrix(0.010850694444444444,0,0,0.010850694444444444,24.479166666666664,0)" xlink:href="#aH"/><use transform="matrix(0.010850694444444444,0,0,0.010850694444444444,31.749131944444443,0)" xlink:href="#aq"/><use transform="matrix(0.010850694444444444,0,0,0.010850694444444444,37.131076388888886,0)" xlink:href="#as"/><use transform="matrix(0.010850694444444444,0,0,0.010850694444444444,49.609375,0)" xlink:href="#aA"/><use transform="matrix(0.010850694444444444,0,0,0.010850694444444444,54.99131944444444,0)" xlink:href="#aq"/><use transform="matrix(0.010850694444444444,0,0,0.010850694444444444,60.373263888888886,0)" xlink:href="#aQ"/><use transform="matrix(0.010850694444444444,0,0,0.010850694444444444,72.31987847222221,0)" xlink:href="#av"/></g><g id="o"><use transform="matrix(0.010850694444444444,0,0,0.010850694444444444,0,0)" xlink:href="#au"/><use transform="matrix(0.010850694444444444,0,0,0.010850694444444444,16.03732638888889,0)" xlink:href="#as"/><use transform="matrix(0.010850694444444444,0,0,0.010850694444444444,28.515625,0)" xlink:href="#aw"/><use transform="matrix(0.010850694444444444,0,0,0.010850694444444444,40.24522569444444,0)" xlink:href="#aC"/><use transform="matrix(0.010850694444444444,0,0,0.010850694444444444,53.385416666666664,0)" xlink:href="#aD"/><use transform="matrix(0.010850694444444444,0,0,0.010850694444444444,66.9921875,0)" xlink:href="#aE"/><use transform="matrix(0.010850694444444444,0,0,0.010850694444444444,80.53385416666666,0)" xlink:href="#as"/><use transform="matrix(0.010850694444444444,0,0,0.010850694444444444,93.01215277777777,0)" xlink:href="#ap"/><use transform="matrix(0.010850694444444444,0,0,0.010850694444444444,101.00911458333333,0)" xlink:href="#aF"/></g><g id="p"><use transform="matrix(0.010850694444444444,0,0,0.010850694444444444,0,0)" xlink:href="#aO"/><use transform="matrix(0.010850694444444444,0,0,0.010850694444444444,20.07378472222222,0)" xlink:href="#as"/><use transform="matrix(0.010850694444444444,0,0,0.010850694444444444,32.55208333333333,0)" xlink:href="#aN"/><use transform="matrix(0.010850694444444444,0,0,0.010850694444444444,45.24739583333333,0)" xlink:href="#ap"/><use transform="matrix(0.010850694444444444,0,0,0.010850694444444444,53.24435763888888,0)" xlink:href="#aE"/></g><g id="q"><use transform="matrix(0.010850694444444444,0,0,0.010850694444444444,0,0)" xlink:href="#aI"/><use transform="matrix(0.010850694444444444,0,0,0.010850694444444444,20.768229166666668,0)" xlink:href="#aE"/><use transform="matrix(0.010850694444444444,0,0,0.010850694444444444,34.09288194444444,0)" xlink:href="#ap"/><use transform="matrix(0.010850694444444444,0,0,0.010850694444444444,42.80598958333333,0)" xlink:href="#aJ"/><use transform="matrix(0.010850694444444444,0,0,0.010850694444444444,54.50303819444444,0)" xlink:href="#av"/><use transform="matrix(0.010850694444444444,0,0,0.010850694444444444,67.45876736111111,0)" xlink:href="#ap"/></g><path d="M653-1490V0H466v-1314h-10L96-1047v-204l324-239h233" id="aR"/><path d="M295 13c-75 0-135-60-135-135s60-135 135-135 135 60 135 135S370 13 295 13" id="aS"/><g id="s"><use transform="matrix(0.010850694444444444,0,0,0.010850694444444444,0,0)" xlink:href="#aR"/><use transform="matrix(0.010850694444444444,0,0,0.010850694444444444,9.038628472222221,0)" xlink:href="#aS"/></g><path d="M180 0v-1490h510c348 0 508 194 508 460 0 198-88 351-276 417L1256 0h-220L726-579c-117 2-238 0-356 1V0H180zm190-747h312c235 0 327-108 327-283 0-177-92-293-329-293H370v576" id="aT"/><g id="t"><use transform="matrix(0.010850694444444444,0,0,0.010850694444444444,0,0)" xlink:href="#aT"/><use transform="matrix(0.010850694444444444,0,0,0.010850694444444444,14.301215277777777,0)" xlink:href="#aB"/><use transform="matrix(0.010850694444444444,0,0,0.010850694444444444,27.44140625,0)" xlink:href="#ay"/></g><g id="u"><use transform="matrix(0.010850694444444444,0,0,0.010850694444444444,0,0)" xlink:href="#aP"/><use transform="matrix(0.010850694444444444,0,0,0.010850694444444444,5.967881944444445,0)" xlink:href="#ay"/><use transform="matrix(0.010850694444444444,0,0,0.010850694444444444,19.09722222222222,0)" xlink:href="#aq"/><use transform="matrix(0.010850694444444444,0,0,0.010850694444444444,24.479166666666664,0)" xlink:href="#aH"/><use transform="matrix(0.010850694444444444,0,0,0.010850694444444444,31.749131944444443,0)" xlink:href="#aq"/><use transform="matrix(0.010850694444444444,0,0,0.010850694444444444,37.131076388888886,0)" xlink:href="#as"/><use transform="matrix(0.010850694444444444,0,0,0.010850694444444444,49.609375,0)" xlink:href="#aA"/><use transform="matrix(0.010850694444444444,0,0,0.010850694444444444,54.99131944444444,0)" xlink:href="#aq"/><use transform="matrix(0.010850694444444444,0,0,0.010850694444444444,60.373263888888886,0)" xlink:href="#aQ"/><use transform="matrix(0.010850694444444444,0,0,0.010850694444444444,72.31987847222221,0)" xlink:href="#av"/></g><g id="v"><use transform="matrix(0.010850694444444444,0,0,0.010850694444444444,0,0)" xlink:href="#au"/><use transform="matrix(0.010850694444444444,0,0,0.010850694444444444,16.03732638888889,0)" xlink:href="#as"/><use transform="matrix(0.010850694444444444,0,0,0.010850694444444444,28.515625,0)" xlink:href="#aw"/><use transform="matrix(0.010850694444444444,0,0,0.010850694444444444,40.24522569444444,0)" xlink:href="#aC"/><use transform="matrix(0.010850694444444444,0,0,0.010850694444444444,53.385416666666664,0)" xlink:href="#aD"/><use transform="matrix(0.010850694444444444,0,0,0.010850694444444444,66.9921875,0)" xlink:href="#aE"/><use transform="matrix(0.010850694444444444,0,0,0.010850694444444444,80.53385416666666,0)" xlink:href="#as"/><use transform="matrix(0.010850694444444444,0,0,0.010850694444444444,93.01215277777777,0)" xlink:href="#ap"/><use transform="matrix(0.010850694444444444,0,0,0.010850694444444444,101.00911458333333,0)" xlink:href="#aF"/></g><g id="w"><use transform="matrix(0.010850694444444444,0,0,0.010850694444444444,0,0)" xlink:href="#as"/><use transform="matrix(0.010850694444444444,0,0,0.010850694444444444,12.47829861111111,0)" xlink:href="#aS"/></g><path d="M678-1118v154H420V0H240v-964H20v-154h220v-149c0-194 155-293 318-293 85 0 141 18 168 30l-50 154c-19-6-47-17-97-17-111 0-159 58-159 166v109h258" id="aU"/><g id="x"><use transform="matrix(0.010850694444444444,0,0,0.010850694444444444,0,0)" xlink:href="#aM"/><use transform="matrix(0.010850694444444444,0,0,0.010850694444444444,16.23263888888889,0)" xlink:href="#aE"/><use transform="matrix(0.010850694444444444,0,0,0.010850694444444444,29.557291666666664,0)" xlink:href="#ay"/><use transform="matrix(0.010850694444444444,0,0,0.010850694444444444,42.68663194444444,0)" xlink:href="#aU"/><use transform="matrix(0.010850694444444444,0,0,0.010850694444444444,50.91145833333333,0)" xlink:href="#aq"/><use transform="matrix(0.010850694444444444,0,0,0.010850694444444444,56.29340277777778,0)" xlink:href="#ax"/><use transform="matrix(0.010850694444444444,0,0,0.010850694444444444,69.921875,0)" xlink:href="#aB"/><use transform="matrix(0.010850694444444444,0,0,0.010850694444444444,83.06206597222223,0)" xlink:href="#ap"/><use transform="matrix(0.010850694444444444,0,0,0.010850694444444444,91.0590277777778,0)" xlink:href="#av"/><use transform="matrix(0.010850694444444444,0,0,0.010850694444444444,104.01475694444446,0)" xlink:href="#aw"/></g><g id="y"><use transform="matrix(0.010850694444444444,0,0,0.010850694444444444,0,0)" xlink:href="#aM"/><use transform="matrix(0.010850694444444444,0,0,0.010850694444444444,16.23263888888889,0)" xlink:href="#aE"/><use transform="matrix(0.010850694444444444,0,0,0.010850694444444444,29.557291666666664,0)" xlink:href="#aF"/><use transform="matrix(0.010850694444444444,0,0,0.010850694444444444,43.1640625,0)" xlink:href="#av"/></g><g id="z"><use transform="matrix(0.010850694444444444,0,0,0.010850694444444444,0,0)" xlink:href="#az"/><use transform="matrix(0.010850694444444444,0,0,0.010850694444444444,14.2578125,0)" xlink:href="#aH"/><use transform="matrix(0.010850694444444444,0,0,0.010850694444444444,21.52777777777778,0)" xlink:href="#aB"/><use transform="matrix(0.010850694444444444,0,0,0.010850694444444444,34.66796875,0)" xlink:href="#aF"/><use transform="matrix(0.010850694444444444,0,0,0.010850694444444444,48.27473958333333,0)" xlink:href="#aq"/><use transform="matrix(0.010850694444444444,0,0,0.010850694444444444,53.65668402777778,0)" xlink:href="#aE"/></g><g id="A"><use transform="matrix(0.010850694444444444,0,0,0.010850694444444444,0,0)" xlink:href="#aD"/><use transform="matrix(0.010850694444444444,0,0,0.010850694444444444,13.606770833333332,0)" xlink:href="#aS"/></g><g id="B"><use transform="matrix(0.010850694444444444,0,0,0.010850694444444444,0,0)" xlink:href="#aA"/><use transform="matrix(0.010850694444444444,0,0,0.010850694444444444,5.381944444444445,0)" xlink:href="#as"/><use transform="matrix(0.010850694444444444,0,0,0.010850694444444444,17.860243055555557,0)" xlink:href="#aH"/><use transform="matrix(0.010850694444444444,0,0,0.010850694444444444,24.91319444444445,0)" xlink:href="#av"/><use transform="matrix(0.010850694444444444,0,0,0.010850694444444444,37.868923611111114,0)" xlink:href="#aw"/><use transform="matrix(0.010850694444444444,0,0,0.010850694444444444,49.59852430555556,0)" xlink:href="#aH"/></g><g id="C"><use transform="matrix(0.010850694444444444,0,0,0.010850694444444444,0,0)" xlink:href="#az"/><use transform="matrix(0.010850694444444444,0,0,0.010850694444444444,14.2578125,0)" xlink:href="#aH"/><use transform="matrix(0.010850694444444444,0,0,0.010850694444444444,21.52777777777778,0)" xlink:href="#ap"/><use transform="matrix(0.010850694444444444,0,0,0.010850694444444444,29.524739583333336,0)" xlink:href="#av"/><use transform="matrix(0.010850694444444444,0,0,0.010850694444444444,42.69748263888889,0)" xlink:href="#as"/><use transform="matrix(0.010850694444444444,0,0,0.010850694444444444,55.17578125,0)" xlink:href="#ar"/><use transform="matrix(0.010850694444444444,0,0,0.010850694444444444,74.64192708333333,0)" xlink:href="#aA"/><use transform="matrix(0.010850694444444444,0,0,0.010850694444444444,80.02387152777777,0)" xlink:href="#aq"/><use transform="matrix(0.010850694444444444,0,0,0.010850694444444444,85.40581597222221,0)" xlink:href="#aH"/></g><g id="D"><use transform="matrix(0.010850694444444444,0,0,0.010850694444444444,0,0)" xlink:href="#aI"/><use transform="matrix(0.010850694444444444,0,0,0.010850694444444444,20.768229166666668,0)" xlink:href="#av"/><use transform="matrix(0.010850694444444444,0,0,0.010850694444444444,33.723958333333336,0)" xlink:href="#aD"/></g><path d="M52 0l541-1490h220L1361 0h-200l-149-416H398L254 0H52zm404-582h497c-103-290-145-390-251-756-108 377-145 460-246 756" id="aV"/><g id="E"><use transform="matrix(0.010850694444444444,0,0,0.010850694444444444,0,0)" xlink:href="#aV"/><use transform="matrix(0.010850694444444444,0,0,0.010850694444444444,15.33203125,0)" xlink:href="#aL"/><use transform="matrix(0.010850694444444444,0,0,0.010850694444444444,28.938802083333332,0)" xlink:href="#aL"/><use transform="matrix(0.010850694444444444,0,0,0.010850694444444444,42.545572916666664,0)" xlink:href="#aA"/><use transform="matrix(0.010850694444444444,0,0,0.010850694444444444,47.92751736111111,0)" xlink:href="#aq"/><use transform="matrix(0.010850694444444444,0,0,0.010850694444444444,53.30946180555556,0)" xlink:href="#aN"/><use transform="matrix(0.010850694444444444,0,0,0.010850694444444444,66.22178819444443,0)" xlink:href="#as"/><use transform="matrix(0.010850694444444444,0,0,0.010850694444444444,78.70008680555554,0)" xlink:href="#aH"/><use transform="matrix(0.010850694444444444,0,0,0.010850694444444444,85.97005208333331,0)" xlink:href="#aq"/><use transform="matrix(0.010850694444444444,0,0,0.010850694444444444,91.35199652777776,0)" xlink:href="#aE"/><use transform="matrix(0.010850694444444444,0,0,0.010850694444444444,104.67664930555553,0)" xlink:href="#ay"/></g><path d="M692-1560L212 224H46l480-1784h166" id="aW"/><use transform="matrix(0.010850694444444444,0,0,0.010850694444444444,0,0)" xlink:href="#aW" id="F"/><path d="M157-1118h181V80c1 225-123 350-364 338V252c126 9 184-48 183-172v-1198zm91-183c-68 0-125-53-125-119s57-119 125-119c69 0 126 53 126 119s-57 119-126 119" id="aX"/><g id="G"><use transform="matrix(0.010850694444444444,0,0,0.010850694444444444,0,0)" xlink:href="#ao"/><use transform="matrix(0.010850694444444444,0,0,0.010850694444444444,14.192708333333332,0)" xlink:href="#ap"/><use transform="matrix(0.010850694444444444,0,0,0.010850694444444444,22.189670138888886,0)" xlink:href="#aE"/><use transform="matrix(0.010850694444444444,0,0,0.010850694444444444,35.514322916666664,0)" xlink:href="#aX"/><use transform="matrix(0.010850694444444444,0,0,0.010850694444444444,40.89626736111111,0)" xlink:href="#av"/><use transform="matrix(0.010850694444444444,0,0,0.010850694444444444,53.85199652777778,0)" xlink:href="#aN"/><use transform="matrix(0.010850694444444444,0,0,0.010850694444444444,66.54730902777777,0)" xlink:href="#aH"/></g><path d="M180 0v-1490h190v1322h690V0H180" id="aY"/><g id="H"><use transform="matrix(0.010850694444444444,0,0,0.010850694444444444,0,0)" xlink:href="#aY"/><use transform="matrix(0.010850694444444444,0,0,0.010850694444444444,12.565104166666666,0)" xlink:href="#aq"/><use transform="matrix(0.010850694444444444,0,0,0.010850694444444444,17.94704861111111,0)" xlink:href="#aD"/><use transform="matrix(0.010850694444444444,0,0,0.010850694444444444,31.553819444444443,0)" xlink:href="#ap"/><use transform="matrix(0.010850694444444444,0,0,0.010850694444444444,39.91970486111111,0)" xlink:href="#as"/><use transform="matrix(0.010850694444444444,0,0,0.010850694444444444,52.39800347222221,0)" xlink:href="#ap"/><use transform="matrix(0.010850694444444444,0,0,0.010850694444444444,61.1111111111111,0)" xlink:href="#at"/></g><g id="I"><use transform="matrix(0.010850694444444444,0,0,0.010850694444444444,0,0)" xlink:href="#aI"/><use transform="matrix(0.010850694444444444,0,0,0.010850694444444444,20.768229166666668,0)" xlink:href="#av"/><use transform="matrix(0.010850694444444444,0,0,0.010850694444444444,33.723958333333336,0)" xlink:href="#aD"/></g><g id="J"><use transform="matrix(0.010850694444444444,0,0,0.010850694444444444,0,0)" xlink:href="#aV"/><use transform="matrix(0.010850694444444444,0,0,0.010850694444444444,15.33203125,0)" xlink:href="#aL"/><use transform="matrix(0.010850694444444444,0,0,0.010850694444444444,28.938802083333332,0)" xlink:href="#aL"/><use transform="matrix(0.010850694444444444,0,0,0.010850694444444444,42.545572916666664,0)" xlink:href="#aA"/><use transform="matrix(0.010850694444444444,0,0,0.010850694444444444,47.92751736111111,0)" xlink:href="#aq"/><use transform="matrix(0.010850694444444444,0,0,0.010850694444444444,53.30946180555556,0)" xlink:href="#aN"/><use transform="matrix(0.010850694444444444,0,0,0.010850694444444444,66.22178819444443,0)" xlink:href="#as"/><use transform="matrix(0.010850694444444444,0,0,0.010850694444444444,78.70008680555554,0)" xlink:href="#aH"/><use transform="matrix(0.010850694444444444,0,0,0.010850694444444444,85.97005208333331,0)" xlink:href="#aq"/><use transform="matrix(0.010850694444444444,0,0,0.010850694444444444,91.35199652777776,0)" xlink:href="#aE"/><use transform="matrix(0.010850694444444444,0,0,0.010850694444444444,104.67664930555553,0)" xlink:href="#ay"/></g><g id="K"><use transform="matrix(0.010850694444444444,0,0,0.010850694444444444,0,0)" xlink:href="#aI"/><use transform="matrix(0.010850694444444444,0,0,0.010850694444444444,20.768229166666668,0)" xlink:href="#aE"/><use transform="matrix(0.010850694444444444,0,0,0.010850694444444444,34.09288194444444,0)" xlink:href="#ap"/><use transform="matrix(0.010850694444444444,0,0,0.010850694444444444,42.80598958333333,0)" xlink:href="#aJ"/><use transform="matrix(0.010850694444444444,0,0,0.010850694444444444,54.50303819444444,0)" xlink:href="#av"/><use transform="matrix(0.010850694444444444,0,0,0.010850694444444444,67.45876736111111,0)" xlink:href="#ap"/><use transform="matrix(0.010850694444444444,0,0,0.010850694444444444,75.82465277777779,0)" xlink:href="#aw"/></g><g id="L"><use transform="matrix(0.010850694444444444,0,0,0.010850694444444444,0,0)" xlink:href="#aM"/><use transform="matrix(0.010850694444444444,0,0,0.010850694444444444,16.23263888888889,0)" xlink:href="#ap"/><use transform="matrix(0.010850694444444444,0,0,0.010850694444444444,24.229600694444443,0)" xlink:href="#av"/><use transform="matrix(0.010850694444444444,0,0,0.010850694444444444,37.40234375,0)" xlink:href="#as"/><use transform="matrix(0.010850694444444444,0,0,0.010850694444444444,49.88064236111111,0)" xlink:href="#aH"/><use transform="matrix(0.010850694444444444,0,0,0.010850694444444444,56.93359375000001,0)" xlink:href="#av"/><use transform="matrix(0.010850694444444444,0,0,0.010850694444444444,69.88932291666667,0)" xlink:href="#aw"/></g><g id="M"><use transform="matrix(0.010850694444444444,0,0,0.010850694444444444,0,0)" xlink:href="#ap"/><use transform="matrix(0.010850694444444444,0,0,0.010850694444444444,7.996961805555555,0)" xlink:href="#av"/><use transform="matrix(0.010850694444444444,0,0,0.010850694444444444,20.95269097222222,0)" xlink:href="#ar"/><use transform="matrix(0.010850694444444444,0,0,0.010850694444444444,40.41883680555556,0)" xlink:href="#aE"/><use transform="matrix(0.010850694444444444,0,0,0.010850694444444444,53.74348958333333,0)" xlink:href="#aH"/><use transform="matrix(0.010850694444444444,0,0,0.010850694444444444,60.79644097222223,0)" xlink:href="#av"/></g><g id="N"><use transform="matrix(0.010850694444444444,0,0,0.010850694444444444,0,0)" xlink:href="#aL"/><use transform="matrix(0.010850694444444444,0,0,0.010850694444444444,13.606770833333332,0)" xlink:href="#ap"/><use transform="matrix(0.010850694444444444,0,0,0.010850694444444444,21.603732638888886,0)" xlink:href="#aE"/><use transform="matrix(0.010850694444444444,0,0,0.010850694444444444,34.928385416666664,0)" xlink:href="#aX"/><use transform="matrix(0.010850694444444444,0,0,0.010850694444444444,40.31032986111111,0)" xlink:href="#av"/><use transform="matrix(0.010850694444444444,0,0,0.010850694444444444,53.26605902777778,0)" xlink:href="#aN"/><use transform="matrix(0.010850694444444444,0,0,0.010850694444444444,65.96137152777777,0)" xlink:href="#aH"/></g><g id="O"><use transform="matrix(0.010850694444444444,0,0,0.010850694444444444,0,0)" xlink:href="#ao"/><use transform="matrix(0.010850694444444444,0,0,0.010850694444444444,14.073350694444445,0)" xlink:href="#aE"/><use transform="matrix(0.010850694444444444,0,0,0.010850694444444444,27.39800347222222,0)" xlink:href="#aL"/><use transform="matrix(0.010850694444444444,0,0,0.010850694444444444,41.00477430555556,0)" xlink:href="#aB"/><use transform="matrix(0.010850694444444444,0,0,0.010850694444444444,54.14496527777778,0)" xlink:href="#aA"/><use transform="matrix(0.010850694444444444,0,0,0.010850694444444444,59.52690972222222,0)" xlink:href="#as"/><use transform="matrix(0.010850694444444444,0,0,0.010850694444444444,72.00520833333333,0)" xlink:href="#aH"/><use transform="matrix(0.010850694444444444,0,0,0.010850694444444444,79.05815972222221,0)" xlink:href="#av"/><use transform="matrix(0.010850694444444444,0,0,0.010850694444444444,92.01388888888889,0)" xlink:href="#aw"/></g><path d="M180 0v-1490h901v168H370v510h643v168H370V0H180" id="aZ"/><path d="M409 0L70-1118h191c89 329 165 560 243 925 75-353 154-601 240-925h192c85 325 161 564 235 922 77-354 157-598 244-922h191L1267 0h-179c-86-307-176-590-250-913C763-588 675-308 588 0H409" id="ba"/><g id="P"><use transform="matrix(0.010850694444444444,0,0,0.010850694444444444,0,0)" xlink:href="#aZ"/><use transform="matrix(0.010850694444444444,0,0,0.010850694444444444,13.118489583333332,0)" xlink:href="#aA"/><use transform="matrix(0.010850694444444444,0,0,0.010850694444444444,18.50043402777778,0)" xlink:href="#aE"/><use transform="matrix(0.010850694444444444,0,0,0.010850694444444444,31.423611111111114,0)" xlink:href="#ba"/></g><g id="Q"><use transform="matrix(0.010850694444444444,0,0,0.010850694444444444,0,0)" xlink:href="#aN"/><use transform="matrix(0.010850694444444444,0,0,0.010850694444444444,12.6953125,0)" xlink:href="#aS"/></g><g id="R"><use transform="matrix(0.010850694444444444,0,0,0.010850694444444444,0,0)" xlink:href="#az"/><use transform="matrix(0.010850694444444444,0,0,0.010850694444444444,14.2578125,0)" xlink:href="#aN"/><use transform="matrix(0.010850694444444444,0,0,0.010850694444444444,26.953125,0)" xlink:href="#av"/><use transform="matrix(0.010850694444444444,0,0,0.010850694444444444,39.908854166666664,0)" xlink:href="#ay"/><use transform="matrix(0.010850694444444444,0,0,0.010850694444444444,53.03819444444444,0)" xlink:href="#as"/><use transform="matrix(0.010850694444444444,0,0,0.010850694444444444,65.51649305555556,0)" xlink:href="#ap"/><use transform="matrix(0.010850694444444444,0,0,0.010850694444444444,74.22960069444446,0)" xlink:href="#aq"/><use transform="matrix(0.010850694444444444,0,0,0.010850694444444444,79.6115451388889,0)" xlink:href="#aE"/><use transform="matrix(0.010850694444444444,0,0,0.010850694444444444,92.93619791666666,0)" xlink:href="#aw"/></g><path d="M789 20c-398 0-667-293-667-764 0-473 273-766 655-766 315 0 558 198 612 487h-196c-61-191-204-311-415-311-262 0-471 207-471 590 0 380 208 588 482 588 249 0 420-165 425-427H828v-166h572v163c0 370-256 606-611 606" id="bb"/><path d="M180 0v-1490h190v644h782v-644h190V0h-190v-678H370V0H180" id="bc"/><g id="S"><use transform="matrix(0.010850694444444444,0,0,0.010850694444444444,0,0)" xlink:href="#bb"/><use transform="matrix(0.010850694444444444,0,0,0.010850694444444444,16.57986111111111,0)" xlink:href="#aq"/><use transform="matrix(0.010850694444444444,0,0,0.010850694444444444,21.961805555555557,0)" xlink:href="#aH"/><use transform="matrix(0.010850694444444444,0,0,0.010850694444444444,29.231770833333336,0)" xlink:href="#bc"/><use transform="matrix(0.010850694444444444,0,0,0.010850694444444444,45.74652777777778,0)" xlink:href="#aB"/><use transform="matrix(0.010850694444444444,0,0,0.010850694444444444,58.88671875,0)" xlink:href="#aD"/></g><g id="T"><use transform="matrix(0.010850694444444444,0,0,0.010850694444444444,0,0)" xlink:href="#az"/><use transform="matrix(0.010850694444444444,0,0,0.010850694444444444,14.2578125,0)" xlink:href="#as"/><use transform="matrix(0.010850694444444444,0,0,0.010850694444444444,26.73611111111111,0)" xlink:href="#ar"/><use transform="matrix(0.010850694444444444,0,0,0.010850694444444444,46.20225694444444,0)" xlink:href="#av"/></g><g id="U"><use transform="matrix(0.010850694444444444,0,0,0.010850694444444444,0,0)" xlink:href="#as"/><use transform="matrix(0.010850694444444444,0,0,0.010850694444444444,12.47829861111111,0)" xlink:href="#aw"/></g><g id="V"><use transform="matrix(0.010850694444444444,0,0,0.010850694444444444,0,0)" xlink:href="#ao"/><use transform="matrix(0.010850694444444444,0,0,0.010850694444444444,14.192708333333332,0)" xlink:href="#ap"/><use transform="matrix(0.010850694444444444,0,0,0.010850694444444444,22.90581597222222,0)" xlink:href="#aq"/><use transform="matrix(0.010850694444444444,0,0,0.010850694444444444,28.287760416666664,0)" xlink:href="#ar"/><use transform="matrix(0.010850694444444444,0,0,0.010850694444444444,47.75390625,0)" xlink:href="#as"/><use transform="matrix(0.010850694444444444,0,0,0.010850694444444444,60.23220486111112,0)" xlink:href="#ap"/><use transform="matrix(0.010850694444444444,0,0,0.010850694444444444,68.9453125,0)" xlink:href="#at"/></g><g id="W"><use transform="matrix(0.010850694444444444,0,0,0.010850694444444444,0,0)" xlink:href="#bb"/><use transform="matrix(0.010850694444444444,0,0,0.010850694444444444,16.57986111111111,0)" xlink:href="#av"/><use transform="matrix(0.010850694444444444,0,0,0.010850694444444444,29.535590277777775,0)" xlink:href="#aH"/><use transform="matrix(0.010850694444444444,0,0,0.010850694444444444,36.588541666666664,0)" xlink:href="#aw"/></g><g id="X"><use transform="matrix(0.010850694444444444,0,0,0.010850694444444444,0,0)" xlink:href="#aN"/><use transform="matrix(0.010850694444444444,0,0,0.010850694444444444,12.6953125,0)" xlink:href="#ap"/><use transform="matrix(0.010850694444444444,0,0,0.010850694444444444,20.692274305555557,0)" xlink:href="#av"/><use transform="matrix(0.010850694444444444,0,0,0.010850694444444444,33.865017361111114,0)" xlink:href="#as"/><use transform="matrix(0.010850694444444444,0,0,0.010850694444444444,46.34331597222223,0)" xlink:href="#aH"/><use transform="matrix(0.010850694444444444,0,0,0.010850694444444444,53.39626736111112,0)" xlink:href="#av"/><use transform="matrix(0.010850694444444444,0,0,0.010850694444444444,66.35199652777779,0)" xlink:href="#aF"/><use transform="matrix(0.010850694444444444,0,0,0.010850694444444444,79.95876736111111,0)" xlink:href="#aW"/><use transform="matrix(0.010850694444444444,0,0,0.010850694444444444,87.96657986111111,0)" xlink:href="#aN"/><use transform="matrix(0.010850694444444444,0,0,0.010850694444444444,100.66189236111111,0)" xlink:href="#aE"/><use transform="matrix(0.010850694444444444,0,0,0.010850694444444444,113.98654513888889,0)" xlink:href="#ay"/><use transform="matrix(0.010850694444444444,0,0,0.010850694444444444,127.11588541666666,0)" xlink:href="#aU"/><use transform="matrix(0.010850694444444444,0,0,0.010850694444444444,135.34071180555554,0)" xlink:href="#aq"/><use transform="matrix(0.010850694444444444,0,0,0.010850694444444444,140.72265625,0)" xlink:href="#ax"/><use transform="matrix(0.010850694444444444,0,0,0.010850694444444444,154.35112847222223,0)" xlink:href="#aB"/><use transform="matrix(0.010850694444444444,0,0,0.010850694444444444,167.49131944444446,0)" xlink:href="#ap"/><use transform="matrix(0.010850694444444444,0,0,0.010850694444444444,175.48828125,0)" xlink:href="#av"/><use transform="matrix(0.010850694444444444,0,0,0.010850694444444444,188.44401041666666,0)" xlink:href="#aF"/></g><g id="Y"><use transform="matrix(0.010850694444444444,0,0,0.010850694444444444,0,0)" xlink:href="#aD"/><use transform="matrix(0.010850694444444444,0,0,0.010850694444444444,13.172743055555552,0)" xlink:href="#at"/></g><g id="Z"><use transform="matrix(0.010850694444444444,0,0,0.010850694444444444,0,0)" xlink:href="#aP"/><use transform="matrix(0.010850694444444444,0,0,0.010850694444444444,5.967881944444445,0)" xlink:href="#ay"/><use transform="matrix(0.010850694444444444,0,0,0.010850694444444444,19.09722222222222,0)" xlink:href="#aq"/><use transform="matrix(0.010850694444444444,0,0,0.010850694444444444,24.479166666666664,0)" xlink:href="#aH"/></g><path d="M218-607c0-325 108-727 258-974h175c-155 315-250 682-250 974 0 265 78 531 250 886H476C306-10 218-315 218-607" id="bd"/><path d="M96 279C273-86 346-350 346-607c0-292-95-659-250-974h175c150 246 258 650 258 974 0 297-91 602-258 886H96" id="be"/><g id="aa"><use transform="matrix(0.010850694444444444,0,0,0.010850694444444444,0,0)" xlink:href="#az"/><use transform="matrix(0.010850694444444444,0,0,0.010850694444444444,14.2578125,0)" xlink:href="#aN"/><use transform="matrix(0.010850694444444444,0,0,0.010850694444444444,26.953125,0)" xlink:href="#av"/><use transform="matrix(0.010850694444444444,0,0,0.010850694444444444,39.908854166666664,0)" xlink:href="#ay"/><use transform="matrix(0.010850694444444444,0,0,0.010850694444444444,53.03819444444444,0)" xlink:href="#as"/><use transform="matrix(0.010850694444444444,0,0,0.010850694444444444,65.51649305555556,0)" xlink:href="#ap"/><use transform="matrix(0.010850694444444444,0,0,0.010850694444444444,74.22960069444446,0)" xlink:href="#aq"/><use transform="matrix(0.010850694444444444,0,0,0.010850694444444444,79.6115451388889,0)" xlink:href="#aE"/><use transform="matrix(0.010850694444444444,0,0,0.010850694444444444,92.93619791666666,0)" xlink:href="#bd"/><use transform="matrix(0.010850694444444444,0,0,0.010850694444444444,101.04166666666666,0)" xlink:href="#aw"/><use transform="matrix(0.010850694444444444,0,0,0.010850694444444444,112.7712673611111,0)" xlink:href="#be"/></g><g id="ab"><use transform="matrix(0.010850694444444444,0,0,0.010850694444444444,0,0)" xlink:href="#as"/><use transform="matrix(0.010850694444444444,0,0,0.010850694444444444,12.47829861111111,0)" xlink:href="#ap"/><use transform="matrix(0.010850694444444444,0,0,0.010850694444444444,20.475260416666664,0)" xlink:href="#av"/></g><g id="ac"><use transform="matrix(0.010850694444444444,0,0,0.010850694444444444,0,0)" xlink:href="#ap"/><use transform="matrix(0.010850694444444444,0,0,0.010850694444444444,8.365885416666666,0)" xlink:href="#as"/><use transform="matrix(0.010850694444444444,0,0,0.010850694444444444,20.84418402777778,0)" xlink:href="#ay"/></g><g id="ad"><use transform="matrix(0.010850694444444444,0,0,0.010850694444444444,0,0)" xlink:href="#aA"/><use transform="matrix(0.010850694444444444,0,0,0.010850694444444444,5.381944444444445,0)" xlink:href="#aE"/><use transform="matrix(0.010850694444444444,0,0,0.010850694444444444,18.70659722222222,0)" xlink:href="#aN"/><use transform="matrix(0.010850694444444444,0,0,0.010850694444444444,31.61892361111111,0)" xlink:href="#as"/><use transform="matrix(0.010850694444444444,0,0,0.010850694444444444,44.09722222222222,0)" xlink:href="#aA"/></g><g id="ae"><use transform="matrix(0.010850694444444444,0,0,0.010850694444444444,0,0)" xlink:href="#aN"/><use transform="matrix(0.010850694444444444,0,0,0.010850694444444444,12.6953125,0)" xlink:href="#aA"/><use transform="matrix(0.010850694444444444,0,0,0.010850694444444444,18.077256944444443,0)" xlink:href="#aq"/><use transform="matrix(0.010850694444444444,0,0,0.010850694444444444,23.45920138888889,0)" xlink:href="#av"/><use transform="matrix(0.010850694444444444,0,0,0.010850694444444444,36.41493055555555,0)" xlink:href="#ay"/><use transform="matrix(0.010850694444444444,0,0,0.010850694444444444,49.54427083333333,0)" xlink:href="#aH"/></g><path d="M154 0v-137l495-537c165-179 249-281 249-418 0-156-121-253-280-253-170 0-278 110-278 278H158c0-264 200-443 465-443 266 0 455 183 455 416 0 161-73 288-336 568L416-179v12h687V0H154" id="bf"/><g id="af"><use transform="matrix(0.010850694444444444,0,0,0.010850694444444444,0,0)" xlink:href="#bf"/><use transform="matrix(0.010850694444444444,0,0,0.010850694444444444,13.55251736111111,0)" xlink:href="#aS"/></g><g id="ag"><use transform="matrix(0.010850694444444444,0,0,0.010850694444444444,0,0)" xlink:href="#aN"/><use transform="matrix(0.010850694444444444,0,0,0.010850694444444444,12.6953125,0)" xlink:href="#aE"/><use transform="matrix(0.010850694444444444,0,0,0.010850694444444444,26.01996527777778,0)" xlink:href="#aA"/><use transform="matrix(0.010850694444444444,0,0,0.010850694444444444,31.40190972222222,0)" xlink:href="#aA"/><use transform="matrix(0.010850694444444444,0,0,0.010850694444444444,36.783854166666664,0)" xlink:href="#av"/><use transform="matrix(0.010850694444444444,0,0,0.010850694444444444,49.73958333333333,0)" xlink:href="#aN"/><use transform="matrix(0.010850694444444444,0,0,0.010850694444444444,62.43489583333333,0)" xlink:href="#aH"/><use transform="matrix(0.010850694444444444,0,0,0.010850694444444444,69.48784722222221,0)" xlink:href="#av"/><use transform="matrix(0.010850694444444444,0,0,0.010850694444444444,82.44357638888889,0)" xlink:href="#aF"/></g><path d="M635 20c-292 0-500-160-510-396h192c11 142 145 229 315 229 187 0 323-105 323-260 0-161-125-274-346-274H488v-165h121c174 0 294-100 294-254 0-148-104-245-266-245-152 0-291 85-297 230H157c8-234 222-395 484-395 278 0 448 188 448 400 0 168-95 291-247 336v12c190 31 301 169 301 357 0 244-216 425-508 425" id="bg"/><g id="ah"><use transform="matrix(0.010850694444444444,0,0,0.010850694444444444,0,0)" xlink:href="#bg"/><use transform="matrix(0.010850694444444444,0,0,0.010850694444444444,13.226996527777777,0)" xlink:href="#aS"/></g><g id="ai"><use transform="matrix(0.010850694444444444,0,0,0.010850694444444444,0,0)" xlink:href="#au"/><use transform="matrix(0.010850694444444444,0,0,0.010850694444444444,16.03732638888889,0)" xlink:href="#az"/><use transform="matrix(0.010850694444444444,0,0,0.010850694444444444,30.29513888888889,0)" xlink:href="#az"/></g><g id="aj"><use transform="matrix(0.010850694444444444,0,0,0.010850694444444444,0,0)" xlink:href="#aV"/><use transform="matrix(0.010850694444444444,0,0,0.010850694444444444,15.33203125,0)" xlink:href="#ao"/><use transform="matrix(0.010850694444444444,0,0,0.010850694444444444,29.524739583333332,0)" xlink:href="#aP"/></g><g id="ak"><use transform="matrix(0.010850694444444444,0,0,0.010850694444444444,0,0)" xlink:href="#aL"/><use transform="matrix(0.010850694444444444,0,0,0.010850694444444444,13.606770833333332,0)" xlink:href="#aB"/><use transform="matrix(0.010850694444444444,0,0,0.010850694444444444,26.746961805555554,0)" xlink:href="#aw"/><use transform="matrix(0.010850694444444444,0,0,0.010850694444444444,38.4765625,0)" xlink:href="#aC"/></g><g id="al"><use transform="matrix(0.010850694444444444,0,0,0.010850694444444444,0,0)" xlink:href="#aD"/><use transform="matrix(0.010850694444444444,0,0,0.010850694444444444,13.823784722222221,0)" xlink:href="#as"/><use transform="matrix(0.010850694444444444,0,0,0.010850694444444444,26.302083333333332,0)" xlink:href="#aN"/><use transform="matrix(0.010850694444444444,0,0,0.010850694444444444,38.99739583333333,0)" xlink:href="#aJ"/></g><g id="am"><use transform="matrix(0.010850694444444444,0,0,0.010850694444444444,0,0)" xlink:href="#aH"/><use transform="matrix(0.010850694444444444,0,0,0.010850694444444444,7.052951388888888,0)" xlink:href="#aE"/></g><g id="an"><use transform="matrix(0.010850694444444444,0,0,0.010850694444444444,0,0)" xlink:href="#aL"/><use transform="matrix(0.010850694444444444,0,0,0.010850694444444444,13.606770833333332,0)" xlink:href="#ap"/><use transform="matrix(0.010850694444444444,0,0,0.010850694444444444,22.31987847222222,0)" xlink:href="#aq"/><use transform="matrix(0.010850694444444444,0,0,0.010850694444444444,27.701822916666664,0)" xlink:href="#ar"/><use transform="matrix(0.010850694444444444,0,0,0.010850694444444444,47.16796875,0)" xlink:href="#as"/><use transform="matrix(0.010850694444444444,0,0,0.010850694444444444,59.64626736111112,0)" xlink:href="#ap"/><use transform="matrix(0.010850694444444444,0,0,0.010850694444444444,68.359375,0)" xlink:href="#at"/></g></defs></g></svg>